# xmcd
#
# Track frame offsets:
#	150
#	4895
#	11202
#	15462
#	23627
#	44675
#	67905
#	83172
#	100712
#	103297
#	122290
#	145870
#	148897
#	169262
#	183720
#	188037
#	202845
#	217730
#	221620
#	260460
#	266047
#
# Disc length: 3749 seconds
#
# Revision: 3
# Processed by: cddbd v1.5.2PL0 Copyright (c) Steve Scherf et al.
# Submitted via: audiograbber 1.83.01
#
DISCID=290ea315
DTITLE=Organized Konfusion - The Equinox
DYEAR=1997
DGENRE=Hip-Hop
TTITLE0=Interior Assasin's Car 3:35 A.M. (Skit)
TTITLE1=They Don't Want It!
TTITLE2=March 21 3:45 A.M. (Skit)
TTITLE3=9xs Out Of 10
TTITLE4=Questions
TTITLE5=Soundman
TTITLE6=Move
TTITLE7=Confrontations
TTITLE8=Life and Malice Exterior Club Nite (Skit)
TTITLE9=Numbers
TTITLE10=Shugah Shorty
TTITLE11=Interior Car Nite (Skit)
TTITLE12=Invetro
TTITLE13=Chuck Cheese
TTITLE14=Interior Marisol's Apartment (Skit)
TTITLE15=Sin
TTITLE16=Hate
TTITLE17=March 21 - 3:47 A.M. (Skit)
TTITLE18=Somehow, Someway
TTITLE19=Epilogue
TTITLE20=The Equinox
EXTD=www.RapMusicGuide.com
EXTT0=
EXTT1=
EXTT2=
EXTT3=
EXTT4=
EXTT5=
EXTT6=
EXTT7=
EXTT8=
EXTT9=
EXTT10=
EXTT11=
EXTT12=
EXTT13=
EXTT14=
EXTT15=
EXTT16=
EXTT17=
EXTT18=
EXTT19=
EXTT20=
PLAYORDER=
